M48
; DRILL file {KiCad 9.0.7} date 2026-03-13T14:33:43-0700
; FORMAT={-:-/ absolute / metric / decimal}
; #@! TF.CreationDate,2026-03-13T14:33:43-07:00
; #@! TF.GenerationSoftware,Kicad,Pcbnew,9.0.7
; #@! TF.FileFunction,Plated,1,2,PTH
FMAT,2
METRIC
; #@! TA.AperFunction,Plated,PTH,ComponentDrill
T1C1.000
; #@! TA.AperFunction,Plated,PTH,ComponentDrill
T2C1.524
%
G90
G05
T1
X182.245Y-85.595
X182.245Y-88.135
X182.245Y-90.675
X182.245Y-93.215
X182.245Y-95.755
X182.245Y-98.295
X182.245Y-100.835
X182.245Y-103.375
X182.245Y-105.915
X182.245Y-108.455
X182.245Y-110.995
X182.245Y-113.535
X182.245Y-116.075
X182.245Y-118.615
X182.245Y-121.155
X182.245Y-123.695
X182.245Y-126.235
X182.245Y-128.775
X182.245Y-131.315
X182.245Y-133.855
X200.025Y-85.595
X200.025Y-88.135
X200.025Y-90.675
X200.025Y-93.215
X200.025Y-95.755
X200.025Y-98.295
X200.025Y-100.835
X200.025Y-103.375
X200.025Y-105.915
X200.025Y-108.455
X200.025Y-110.995
X200.025Y-113.535
X200.025Y-116.075
X200.025Y-118.615
X200.025Y-121.155
X200.025Y-123.695
X200.025Y-126.235
X200.025Y-128.775
X200.025Y-131.315
X200.025Y-133.855
T2
X81.915Y-102.235
X88.265Y-99.695
X100.965Y-92.71
X100.965Y-111.76
X107.315Y-90.17
X107.315Y-109.22
X120.015Y-92.71
X120.015Y-111.76
X120.015Y-149.86
X126.365Y-90.17
X126.365Y-109.22
X126.365Y-147.32
X139.065Y-92.71
X139.065Y-111.76
X139.065Y-149.86
X145.415Y-90.17
X145.415Y-109.22
X145.415Y-147.32
X158.115Y-102.235
X158.115Y-149.86
X164.465Y-99.695
X164.465Y-147.32
X215.265Y-102.235
X215.265Y-149.86
X221.615Y-99.695
X221.615Y-147.32
X234.315Y-92.71
X234.315Y-111.76
X234.315Y-149.86
X240.665Y-90.17
X240.665Y-109.22
X240.665Y-147.32
X253.365Y-92.71
X253.365Y-111.76
X253.365Y-149.86
X259.715Y-90.17
X259.715Y-109.22
X259.715Y-147.32
X272.415Y-92.71
X272.415Y-111.76
X278.765Y-90.17
X278.765Y-109.22
X291.465Y-92.71
X291.465Y-111.76
X297.815Y-90.17
X297.815Y-109.22
X310.515Y-92.71
X310.515Y-111.76
X316.865Y-90.17
X316.865Y-109.22
M30
