%TF.GenerationSoftware,KiCad,Pcbnew,9.0.7*%
%TF.CreationDate,2026-03-13T14:33:41-07:00*%
%TF.ProjectId,steno-keyboard,7374656e-6f2d-46b6-9579-626f6172642e,rev?*%
%TF.SameCoordinates,Original*%
%TF.FileFunction,Soldermask,Bot*%
%TF.FilePolarity,Negative*%
%FSLAX46Y46*%
G04 Gerber Fmt 4.6, Leading zero omitted, Abs format (unit mm)*
G04 Created by KiCad (PCBNEW 9.0.7) date 2026-03-13 14:33:41*
%MOMM*%
%LPD*%
G01*
G04 APERTURE LIST*
G04 Aperture macros list*
%AMRoundRect*
0 Rectangle with rounded corners*
0 $1 Rounding radius*
0 $2 $3 $4 $5 $6 $7 $8 $9 X,Y pos of 4 corners*
0 Add a 4 corners polygon primitive as box body*
4,1,4,$2,$3,$4,$5,$6,$7,$8,$9,$2,$3,0*
0 Add four circle primitives for the rounded corners*
1,1,$1+$1,$2,$3*
1,1,$1+$1,$4,$5*
1,1,$1+$1,$6,$7*
1,1,$1+$1,$8,$9*
0 Add four rect primitives between the rounded corners*
20,1,$1+$1,$2,$3,$4,$5,0*
20,1,$1+$1,$4,$5,$6,$7,0*
20,1,$1+$1,$6,$7,$8,$9,0*
20,1,$1+$1,$8,$9,$2,$3,0*%
%AMFreePoly0*
4,1,37,0.603843,0.796157,0.639018,0.796157,0.711114,0.766294,0.766294,0.711114,0.796157,0.639018,0.796157,0.603843,0.800000,0.600000,0.800000,-0.600000,0.796157,-0.603843,0.796157,-0.639018,0.766294,-0.711114,0.711114,-0.766294,0.639018,-0.796157,0.603843,-0.796157,0.600000,-0.800000,0.000000,-0.800000,0.000000,-0.796148,-0.078414,-0.796148,-0.232228,-0.765552,-0.377117,-0.705537,
-0.507515,-0.618408,-0.618408,-0.507515,-0.705537,-0.377117,-0.765552,-0.232228,-0.796148,-0.078414,-0.796148,0.078414,-0.765552,0.232228,-0.705537,0.377117,-0.618408,0.507515,-0.507515,0.618408,-0.377117,0.705537,-0.232228,0.765552,-0.078414,0.796148,0.000000,0.796148,0.000000,0.800000,0.600000,0.800000,0.603843,0.796157,0.603843,0.796157,$1*%
%AMFreePoly1*
4,1,37,0.000000,0.796148,0.078414,0.796148,0.232228,0.765552,0.377117,0.705537,0.507515,0.618408,0.618408,0.507515,0.705537,0.377117,0.765552,0.232228,0.796148,0.078414,0.796148,-0.078414,0.765552,-0.232228,0.705537,-0.377117,0.618408,-0.507515,0.507515,-0.618408,0.377117,-0.705537,0.232228,-0.765552,0.078414,-0.796148,0.000000,-0.796148,0.000000,-0.800000,-0.600000,-0.800000,
-0.603843,-0.796157,-0.639018,-0.796157,-0.711114,-0.766294,-0.766294,-0.711114,-0.796157,-0.639018,-0.796157,-0.603843,-0.800000,-0.600000,-0.800000,0.600000,-0.796157,0.603843,-0.796157,0.639018,-0.766294,0.711114,-0.711114,0.766294,-0.639018,0.796157,-0.603843,0.796157,-0.600000,0.800000,0.000000,0.800000,0.000000,0.796148,0.000000,0.796148,$1*%
G04 Aperture macros list end*
%ADD10C,1.701800*%
%ADD11C,3.987800*%
%ADD12C,2.300000*%
%ADD13C,2.200000*%
%ADD14C,1.850000*%
%ADD15RoundRect,0.200000X-0.600000X-0.600000X0.600000X-0.600000X0.600000X0.600000X-0.600000X0.600000X0*%
%ADD16C,1.600000*%
%ADD17FreePoly0,0.000000*%
%ADD18FreePoly1,0.000000*%
%ADD19C,3.200000*%
G04 APERTURE END LIST*
D10*
%TO.C,SW11*%
X309245000Y-95250000D03*
D11*
X314325000Y-95250000D03*
D10*
X319405000Y-95250000D03*
D12*
X310515000Y-92710000D03*
X316865000Y-90170000D03*
%TD*%
D10*
%TO.C,SW16*%
X252095000Y-114300000D03*
D11*
X257175000Y-114300000D03*
D10*
X262255000Y-114300000D03*
D12*
X253365000Y-111760000D03*
X259715000Y-109220000D03*
%TD*%
D10*
%TO.C,SW22*%
X156845000Y-152400000D03*
D11*
X161925000Y-152400000D03*
D10*
X167005000Y-152400000D03*
D12*
X158115000Y-149860000D03*
X164465000Y-147320000D03*
%TD*%
D10*
%TO.C,SW3*%
X118745000Y-95250000D03*
D11*
X123825000Y-95250000D03*
D10*
X128905000Y-95250000D03*
D12*
X120015000Y-92710000D03*
X126365000Y-90170000D03*
%TD*%
D10*
%TO.C,SW14*%
X137795000Y-114300000D03*
D11*
X142875000Y-114300000D03*
D10*
X147955000Y-114300000D03*
D12*
X139065000Y-111760000D03*
X145415000Y-109220000D03*
%TD*%
D13*
%TO.C,A1*%
X188410000Y-85725000D03*
D14*
X188710000Y-88755000D03*
X193560000Y-88755000D03*
D13*
X193860000Y-85725000D03*
D15*
X182245000Y-85595000D03*
D16*
X182245000Y-88135000D03*
D17*
X182245000Y-90675000D03*
D16*
X182245000Y-93215000D03*
X182245000Y-95755000D03*
X182245000Y-98295000D03*
X182245000Y-100835000D03*
D17*
X182245000Y-103375000D03*
D16*
X182245000Y-105915000D03*
X182245000Y-108455000D03*
X182245000Y-110995000D03*
X182245000Y-113535000D03*
D17*
X182245000Y-116075000D03*
D16*
X182245000Y-118615000D03*
X182245000Y-121155000D03*
X182245000Y-123695000D03*
X182245000Y-126235000D03*
D17*
X182245000Y-128775000D03*
D16*
X182245000Y-131315000D03*
X182245000Y-133855000D03*
X200025000Y-133855000D03*
X200025000Y-131315000D03*
D18*
X200025000Y-128775000D03*
D16*
X200025000Y-126235000D03*
X200025000Y-123695000D03*
X200025000Y-121155000D03*
X200025000Y-118615000D03*
D18*
X200025000Y-116075000D03*
D16*
X200025000Y-113535000D03*
X200025000Y-110995000D03*
X200025000Y-108455000D03*
X200025000Y-105915000D03*
D18*
X200025000Y-103375000D03*
D16*
X200025000Y-100835000D03*
X200025000Y-98295000D03*
X200025000Y-95755000D03*
X200025000Y-93215000D03*
D18*
X200025000Y-90675000D03*
D16*
X200025000Y-88135000D03*
X200025000Y-85595000D03*
%TD*%
D10*
%TO.C,SW19*%
X309245000Y-114300000D03*
D11*
X314325000Y-114300000D03*
D10*
X319405000Y-114300000D03*
D12*
X310515000Y-111760000D03*
X316865000Y-109220000D03*
%TD*%
D10*
%TO.C,SW21*%
X137795000Y-152400000D03*
D11*
X142875000Y-152400000D03*
D10*
X147955000Y-152400000D03*
D12*
X139065000Y-149860000D03*
X145415000Y-147320000D03*
%TD*%
D10*
%TO.C,SW24*%
X233045000Y-152400000D03*
D11*
X238125000Y-152400000D03*
D10*
X243205000Y-152400000D03*
D12*
X234315000Y-149860000D03*
X240665000Y-147320000D03*
%TD*%
D10*
%TO.C,SW5*%
X156845000Y-104775000D03*
D11*
X161925000Y-104775000D03*
D10*
X167005000Y-104775000D03*
D12*
X158115000Y-102235000D03*
X164465000Y-99695000D03*
%TD*%
D10*
%TO.C,SW2*%
X99695000Y-95250000D03*
D11*
X104775000Y-95250000D03*
D10*
X109855000Y-95250000D03*
D12*
X100965000Y-92710000D03*
X107315000Y-90170000D03*
%TD*%
D10*
%TO.C,SW10*%
X290195000Y-95250000D03*
D11*
X295275000Y-95250000D03*
D10*
X300355000Y-95250000D03*
D12*
X291465000Y-92710000D03*
X297815000Y-90170000D03*
%TD*%
D10*
%TO.C,SW7*%
X233045000Y-95250000D03*
D11*
X238125000Y-95250000D03*
D10*
X243205000Y-95250000D03*
D12*
X234315000Y-92710000D03*
X240665000Y-90170000D03*
%TD*%
D10*
%TO.C,SW23*%
X213995000Y-152400000D03*
D11*
X219075000Y-152400000D03*
D10*
X224155000Y-152400000D03*
D12*
X215265000Y-149860000D03*
X221615000Y-147320000D03*
%TD*%
D19*
%TO.C,H2*%
X85000000Y-123000000D03*
%TD*%
%TO.C,H4*%
X257175000Y-133350000D03*
%TD*%
D10*
%TO.C,SW6*%
X213995000Y-104775000D03*
D11*
X219075000Y-104775000D03*
D10*
X224155000Y-104775000D03*
D12*
X215265000Y-102235000D03*
X221615000Y-99695000D03*
%TD*%
D19*
%TO.C,H3*%
X192000000Y-153000000D03*
%TD*%
D10*
%TO.C,SW8*%
X252095000Y-95250000D03*
D11*
X257175000Y-95250000D03*
D10*
X262255000Y-95250000D03*
D12*
X253365000Y-92710000D03*
X259715000Y-90170000D03*
%TD*%
D10*
%TO.C,SW12*%
X99695000Y-114300000D03*
D11*
X104775000Y-114300000D03*
D10*
X109855000Y-114300000D03*
D12*
X100965000Y-111760000D03*
X107315000Y-109220000D03*
%TD*%
D10*
%TO.C,SW13*%
X118745000Y-114300000D03*
D11*
X123825000Y-114300000D03*
D10*
X128905000Y-114300000D03*
D12*
X120015000Y-111760000D03*
X126365000Y-109220000D03*
%TD*%
D10*
%TO.C,SW4*%
X137795000Y-95250000D03*
D11*
X142875000Y-95250000D03*
D10*
X147955000Y-95250000D03*
D12*
X139065000Y-92710000D03*
X145415000Y-90170000D03*
%TD*%
D10*
%TO.C,SW15*%
X233045000Y-114300000D03*
D11*
X238125000Y-114300000D03*
D10*
X243205000Y-114300000D03*
D12*
X234315000Y-111760000D03*
X240665000Y-109220000D03*
%TD*%
D10*
%TO.C,SW20*%
X118745000Y-152400000D03*
D11*
X123825000Y-152400000D03*
D10*
X128905000Y-152400000D03*
D12*
X120015000Y-149860000D03*
X126365000Y-147320000D03*
%TD*%
D10*
%TO.C,SW9*%
X271145000Y-95250000D03*
D11*
X276225000Y-95250000D03*
D10*
X281305000Y-95250000D03*
D12*
X272415000Y-92710000D03*
X278765000Y-90170000D03*
%TD*%
D10*
%TO.C,SW25*%
X252095000Y-152400000D03*
D11*
X257175000Y-152400000D03*
D10*
X262255000Y-152400000D03*
D12*
X253365000Y-149860000D03*
X259715000Y-147320000D03*
%TD*%
D10*
%TO.C,SW18*%
X290195000Y-114300000D03*
D11*
X295275000Y-114300000D03*
D10*
X300355000Y-114300000D03*
D12*
X291465000Y-111760000D03*
X297815000Y-109220000D03*
%TD*%
D19*
%TO.C,H1*%
X85000000Y-89000000D03*
%TD*%
D10*
%TO.C,SW17*%
X271145000Y-114300000D03*
D11*
X276225000Y-114300000D03*
D10*
X281305000Y-114300000D03*
D12*
X272415000Y-111760000D03*
X278765000Y-109220000D03*
%TD*%
D10*
%TO.C,SW1*%
X80645000Y-104775000D03*
D11*
X85725000Y-104775000D03*
D10*
X90805000Y-104775000D03*
D12*
X81915000Y-102235000D03*
X88265000Y-99695000D03*
%TD*%
M02*
