M48
; DRILL file {KiCad 9.0.7} date 2026-03-13T14:33:43-0700
; FORMAT={-:-/ absolute / metric / decimal}
; #@! TF.CreationDate,2026-03-13T14:33:43-07:00
; #@! TF.GenerationSoftware,Kicad,Pcbnew,9.0.7
; #@! TF.FileFunction,NonPlated,1,2,NPTH
FMAT,2
METRIC
; #@! TA.AperFunction,NonPlated,NPTH,ComponentDrill
T1C1.702
; #@! TA.AperFunction,NonPlated,NPTH,ComponentDrill
T2C1.850
; #@! TA.AperFunction,NonPlated,NPTH,ComponentDrill
T3C2.200
; #@! TA.AperFunction,NonPlated,NPTH,ComponentDrill
T4C3.200
; #@! TA.AperFunction,NonPlated,NPTH,ComponentDrill
T5C3.988
%
G90
G05
T1
X80.645Y-104.775
X90.805Y-104.775
X99.695Y-95.25
X99.695Y-114.3
X109.855Y-95.25
X109.855Y-114.3
X118.745Y-95.25
X118.745Y-114.3
X118.745Y-152.4
X128.905Y-95.25
X128.905Y-114.3
X128.905Y-152.4
X137.795Y-95.25
X137.795Y-114.3
X137.795Y-152.4
X147.955Y-95.25
X147.955Y-114.3
X147.955Y-152.4
X156.845Y-104.775
X156.845Y-152.4
X167.005Y-104.775
X167.005Y-152.4
X213.995Y-104.775
X213.995Y-152.4
X224.155Y-104.775
X224.155Y-152.4
X233.045Y-95.25
X233.045Y-114.3
X233.045Y-152.4
X243.205Y-95.25
X243.205Y-114.3
X243.205Y-152.4
X252.095Y-95.25
X252.095Y-114.3
X252.095Y-152.4
X262.255Y-95.25
X262.255Y-114.3
X262.255Y-152.4
X271.145Y-95.25
X271.145Y-114.3
X281.305Y-95.25
X281.305Y-114.3
X290.195Y-95.25
X290.195Y-114.3
X300.355Y-95.25
X300.355Y-114.3
X309.245Y-95.25
X309.245Y-114.3
X319.405Y-95.25
X319.405Y-114.3
T2
X188.71Y-88.755
X193.56Y-88.755
T3
X188.41Y-85.725
X193.86Y-85.725
T4
X85.0Y-89.0
X85.0Y-123.0
X192.0Y-153.0
X257.175Y-133.35
T5
X85.725Y-104.775
X104.775Y-95.25
X104.775Y-114.3
X123.825Y-95.25
X123.825Y-114.3
X123.825Y-152.4
X142.875Y-95.25
X142.875Y-114.3
X142.875Y-152.4
X161.925Y-104.775
X161.925Y-152.4
X219.075Y-104.775
X219.075Y-152.4
X238.125Y-95.25
X238.125Y-114.3
X238.125Y-152.4
X257.175Y-95.25
X257.175Y-114.3
X257.175Y-152.4
X276.225Y-95.25
X276.225Y-114.3
X295.275Y-95.25
X295.275Y-114.3
X314.325Y-95.25
X314.325Y-114.3
M30
